<svg width="40" height="40" viewBox="0 0 40 40" fill="none" xmlns="http://www.w3.org/2000/svg">
<path d="M28.3333 15V11.6667C28.3333 10.7826 27.9821 9.93477 27.357 9.30965C26.7319 8.68453 25.8841 8.33334 25 8.33334H8.33333C7.44928 8.33334 6.60143 8.68453 5.97631 9.30965C5.35119 9.93477 5 10.7826 5 11.6667V21.6667C5 22.5507 5.35119 23.3986 5.97631 24.0237C6.60143 24.6488 7.44928 25 8.33333 25H11.6667M15 15H31.6667C33.5076 15 35 16.4924 35 18.3333V28.3333C35 30.1743 33.5076 31.6667 31.6667 31.6667H15C13.1591 31.6667 11.6667 30.1743 11.6667 28.3333V18.3333C11.6667 16.4924 13.1591 15 15 15ZM26.6667 23.3333C26.6667 25.1743 25.1743 26.6667 23.3333 26.6667C21.4924 26.6667 20 25.1743 20 23.3333C20 21.4924 21.4924 20 23.3333 20C25.1743 20 26.6667 21.4924 26.6667 23.3333Z" stroke="#38844F" stroke-width="2" stroke-linecap="round" stroke-linejoin="round"/>
</svg>
