<svg width="40" height="40" viewBox="0 0 40 40" fill="none" xmlns="http://www.w3.org/2000/svg">
<path d="M19.5429 33.7143V9.02856M19.5429 33.7143L17.1137 31.2852C15.742 29.9135 13.8825 29.1429 11.9426 29.1429H5.82698C4.81709 29.1429 4 28.3242 4 27.3143V8.11428C4 7.10438 4.81868 6.28571 5.82857 6.28571H12.856C14.7959 6.28571 16.6563 7.05631 18.028 8.42801L19.5429 9.94285L21.0577 8.42801C22.4294 7.05632 24.2898 6.28571 26.2297 6.28571H34.1714C35.1813 6.28571 36 7.10438 36 8.11428V27.3143C36 28.3242 35.1813 29.1429 34.1714 29.1429H27.144C25.2041 29.1429 23.3437 29.9135 21.972 31.2852L19.5429 33.7143Z" stroke="#38844F" stroke-width="2" stroke-linecap="round" stroke-linejoin="round"/>
</svg>
