<svg width="40" height="40" viewBox="0 0 40 40" fill="none" xmlns="http://www.w3.org/2000/svg">
<path d="M4 30.3613C5.83107 27.3072 9.84418 25.2168 16.1052 25.2168C22.3662 25.2168 26.3793 27.3072 28.2104 30.3613M29.3687 22.9009C32.6844 24.5587 34.3422 26.2165 36 29.5322M25.9203 10.2293C27.4805 11.0686 28.541 12.7165 28.541 14.6121C28.541 16.453 27.5409 18.0603 26.0543 18.9202M21.0786 14.6121C21.0786 17.3588 18.852 19.5855 16.1052 19.5855C13.3584 19.5855 11.1317 17.3588 11.1317 14.6121C11.1317 11.8653 13.3584 9.63864 16.1052 9.63864C18.852 9.63864 21.0786 11.8653 21.0786 14.6121Z" stroke="#38844F" stroke-width="2" stroke-linecap="round"/>
</svg>
